/* XPM */
static char *d6f29d1ef4f54ce7bb778ce69dd7f548smvMwpZqALHQLJSD[] = {
/* columns rows colors chars-per-pixel */
"64 64 29 1 ",
"  c #7C7C7C",
". c gray25",
"X c black",
"o c #202020",
"O c #343434",
"+ c gray33",
"@ c #646464",
"# c #905C34",
"$ c gray44",
"% c #4C4C4C",
"& c #484848",
"* c #2C2C2C",
"= c gray36",
"- c #80502C",
"; c #5C4020",
": c #885830",
"> c #744C28",
", c #543C1C",
"< c #302410",
"1 c #9C6038",
"2 c gray22",
"3 c #483818",
"4 c #403018",
"5 c #282828",
"6 c #382C14",
"7 c gray19",
"8 c #6C4824",
"9 c gray11",
"0 c #A0643C",
/* pixels */
"            .Xoo         .Xo              .Xo                   ",
"O+@#$$@%%&+.*Xoo @#@$@=.o*Xo +-=@$$@#@ +++*Xo .+@-@@  $@$@$@-;&%",
"++$@:@=%&&+%*Xoo $$@$@>,<*Xo @$@$$1$$@ =&&*Xo -$$=@@@1=+-+%%+++=",
"++++@@==+@@=*Xoo #@+++2O**Xo  $:%%=$$ @%..*Xo   @+$+>+&.3.,&&&%+",
".&=+++@++@@+*Xoo +%&..4<5*Xo $+&;;+=$$@&.2*Xo  $==%%.O4.2.2.O42.",
".&==@@@@@@=%*Xoo ;;%&4<o<*Xo =;;&+@$@+&...*Xo #@=&=&.444.2..O2..",
"+=@@@+.&++2**Xoo &+&,5<<5*Xo +%++@@@+2.&&&*Xo =$-2.O4<<42%;..&++",
"+=@@%;;+=256*Xoo -@%,46<**Xo =--@@=&O22&&2*Xo #$+7545o<4.;..O2&%",
"%%%++&+=+24<*Xoo $$%..346*Xo $-++&2.2O.2*O*Xo @$&O44454.&%24O.&&",
"&..%++=++.4<*Xoo $#%&=&.2*Xo @%..&.23.&O22*Xo @@;744O..+=;44..&%",
"*************Xoo $%%;+&..*Xo.**************Xo.******************",
"XXXXXXXXXXXXXXoo @%.;++.2*XoXXXXXXXXXXXXXXXXoXXXXXXXXXXXXXXXXXXX",
"oooooooooooooooo $-%%=&.O*Xo       .Xooooooooooooooooooooooooooo",
"o            .Xo @@===&O2*Xo 5<*<54*Xo        .Xo             .X",
"o +@$=&2,O2.2*Xo @-++&222*Xo <<45*5*Xo +&%%+.O*Xo %$@88-8#$$@+*X",
"o +=-+8.2....*Xo =&;.27*O*Xo 54.O42*Xo ;22%&.4*Xo +@@>>=+$@$@+*X",
"o @-+->&&&+&.*Xo &.,2.2.2*Xo <42O2;*Xo 2O.&.44*Xo +=@>+@:$ $++*X",
"o $+8+>8+=+%2*Xo.*********Xo.*******Xo 2.%%O5<*Xo =:+&%== $@++*X",
"o $@=+++++%2O*XoXXXXXXXXXXXoXXXXXXXXXo ;+=+O44*Xo $@&42+@$$@%2*X",
"o $$==+;2.2.2*Xooooooooooooooooooooooo ;+=2442*Xo $+34;+$$@+O4*X",
"o =+++;OO.&22*Xooo                 .Xo *%%242O*Xo +.,.+@@+&.44*X",
"o %.;..2.;%2O*Xo  2.+=->%+$$-:$$@@@=*X 6+,.O22*Xo &;2;+++227*5*X",
"o.************Xo O.+=#@+@$$@@$ $=++$*X 52.22OO*Xo .;&++&+2.2***X",
"oXXXXXXXXXXXXXXo O%-@=++$@@@=@$-==@+*X.********Xo 8+8+&++;.O66*X",
"oooooooooooooooo &-$=8;+%+&&%&&&=@@&*XXXXXXXXXXXo 8+=;.;%..*22*X",
"o            .Xo .$$+;2.4O2&;.O2+++;*Xooooo99999o ;8&.2;%2223O*X",
"o @===@@=&%24*Xo %@-%%.22.;+&%.&@@+.*Xo       .Xo 8&%2...522.2*X",
"o @@$@$=+++2;*Xo >$#+&&&%+++&%&+@@+2*Xo 2.;.4<*Xo +=%.445o56*O*X",
"o @@=--==++&+*Xo >$@8.;++++..2;++=24*Xo 888%25*Xo @=&454<<4<o6*X",
"o @@+%8=+$@++*Xo +-8;%&+++.54..+&+24*Xo >-;&55*Xo @+%54,44.332*X",
"o @@%..&+++2.*Xo %=%=>+++%454.2&+;25*Xo .;.354*Xo .;.44442++.&*X",
"o =@+%%++;.O2*Xo ,===>&++254.;&++.5o*Xo O3,454*Xo ;&%34OO.+%&2*X",
"o ===+@=&2.2.*Xo O;++%%;.O4;++@@+O<o*Xo ,;&..&*Xo ;++..%.;&+..*X",
"o +=+++&;;2*O*Xo 2;%%,*.2.;+@$@+;452*Xo ;&&&%O*Xo ;++%2.&+%+.2*X",
"o +%..;;&+34.*Xo *&+&34.;+++++22.4<**Xo +++%2<*Xo :$@&42+++&.O*X",
"o #=&&;%++222*XoX.*****************XXXo ++,*45*Xo $$:&..++;,3O*X",
"o #=%&;&&%.*6*XooXXXXXXXXXXXXXXXXXXXooo &,*444*Xo ---8;;&%2...*X",
"o @+%%&%.26o**Xoooooooooooooooooooooooo .O422O*Xo %+==+%.2445O*X",
"o =-+=+244o<O*Xo          .Xo       .Xo +;.246*Xo =+@@+.*.O44.*X",
"o @@==+.2.**.*Xo .++==+2%&*Xo $@%..4*Xo ++2*27*Xo =+@@+2....;+*X",
"o =%;..2.2OO&*Xo +=@===;+=*Xo @@++=&*Xo =+27*2*Xo ++@@&44.%&%+*X",
"o .O.%O<*2...*Xo %=+%&%&+@*Xo $@%..2*Xo &+;2.O*Xo ++@+.552.&22*X",
"o .8+825*42.3*Xo -@%,2++@=*Xo $+;*44*Xo ++;367*Xo =++%6<4*.O***X",
"o ,+=+**6O.2O*Xo $=.3.@@@&*Xo $+O4..*Xo.*******Xo ++++45O..2*7*X",
"o.************Xo @=&4;=++2*Xo.*******XoXXXXXXXXXo.*************X",
"oXXXXXXXXXXXXXXo --,5.+++2*XoXXXXXXXXXoooooooooooXXXXXXXXXXXXXXX",
"oooooooooooooooo @=.4+=+&.*Xo         Xo             .Xooooooooo",
"           .Xooo.**********Xo .242+++*Xo ++==%;,O.**.*Xo        ",
"-=&45....%;*XoooXXXXXXXXXXXXo 2;2.+=+*Xo 88++8;..;O67*Xo =@=+;8%",
"@+&4O;.2.;;*Xoooooooooooooooo 4.O2++O*Xo %%==;;&2%3O&*Xo .++&&%=",
"=%.2%+...;.*Xo            .Xo ..2.;.5*Xo ++=&,73.%223*Xo ;%+&&++",
"&&%++%2.;;.*Xo ,.+%=@$=+%;*Xo ********Xo.*************Xo ;+>;%+&",
".%+@+2..;+;*Xo ==@+@@=%%..*XoXXXXXXXXXXoXXXXXXXXXXXXXXXo +-+++&.",
",;+=&...&+%*Xo @$$+==++&24*Xoooooooooooooooooooooooooooo #$=%&,,",
",;&2O.2.++&*Xo @$@.&.&=+.2*Xo                       .Xoo $ $+;22",
"..34446.&+&*Xo  $+3*.&@@.O*Xo .-=@@#-=@+,.&%..%2.2.&*Xoo $ @+...",
"&2*42..;;&&*Xo @+,,4;+@=O6*Xo 8@$@0 $@=+&++&..24O.;%*Xoo --==%&&",
".4*2%+++&%+*Xo ++;..++@&OO*Xo $ $$ $ @@=+++;454442.;*Xoo -@@$$=&",
"34O.%++%.;+*Xo -++8++@$+4O*Xo $  =$  @=+&&+&*4.2....*Xoo =@@=+%&",
"472%++;2*O&*Xo =-++++@$&*O*Xo $ @=+=@=++&..2O.%;;.O2*Xoo @--+%%%",
"22;%+%&.4O&*Xo -==&+=++O*O*Xo @  +;.2.;.4*44..%%;.O2*Xoo +@=@+.3",
"..;%+.;O42+*Xo +@@;.26224.*Xo @=@24O...O5244442;&+;&*Xoo 8=@$%..",
"...&.4554;=*Xo @=8;.O4.&.2*Xo &%2454O.%.44444O.+++++*Xoo +-@@%..",
"************Xo.************Xo.***********************Xoo.*******"
};
