/* XPM */
static char *bbb538bbcdd64ab99a8bc15705d0d638fQ5qYUd34nsglGsV[] = {
/* columns rows colors chars-per-pixel */
"64 64 27 1 ",
"  c #282828",
". c gray44",
"X c gray36",
"o c gray33",
"O c #4C4C4C",
"+ c gray11",
"@ c #646464",
"# c gray25",
"$ c black",
"% c #484848",
"& c gray22",
"* c #7C7C7C",
"= c #202020",
"- c #2C2C2C",
"; c gray19",
": c #543C1C",
"> c #5C4020",
", c #80502C",
"< c #483818",
"1 c #6C4824",
"2 c #9C6038",
"3 c #302410",
"4 c #A86840",
"5 c #382C14",
"6 c #28200C",
"7 c #B47044",
"8 c gray55",
/* pixels */
"                                                                ",
"..........XooO+  OooX.....................XooO+  OooX...........",
"X@@XoX@@@X..@#$  %oXo@@@.@X@@X@X..@oXo@OOooo@#$  %@@@@o&#oOooX@X",
"..X@XoX....@.#$  %%O@@@..@XXoXX@.@.X@@@XX@XoX#$  %..@oo##oOXoo..",
"..ooXX@@@.@@@#$  %o@X@@.@@X@XX@X@.@@XX@*X@oXo#$  %@@.@XXO#X@@@..",
"@.X@@XX.....O#$  %@o@@@@@@XooXoX@.@.*..@XXooO#$  %X@.oo@@ooX@@.*",
"@.@@X@@@@.@.@#$  %..@@XXo@@@XoOXoo@@..@@@oO#O#$  %@@@..@@.@..@.@",
"@X@X@@...@@@@#$  %.@.XoXXo@oXX%XXoX@.@@XoXo#O#$  %o@X@@@.*.@@...",
"++++++===-;&&&$  &&&;-===++++++++++++====-;&&&$  &&&;-===+++++++",
"$$$$$$$$$$$$$$$  +$$$$$$$$$$$$$$$$$$$$$$$$$$$$$  +$$$$$$$$$$$$$$",
"===============  ==============================  ===============",
" :::>,,,,,,,,,,,,,,,,,,,,,>:::+  :::>,,,,,,,,,,,,,,,,,,,,,>:::+ ",
" <>1,21111:<1>1>,,>11>111::>13$  <11>>>1111>>>>12211121,,,1>13$ ",
" <11,11>:11>::11,1>1>11>>111>3$  <,>::1>1>,,,1,1,,,12,,221,,,3$ ",
" <111>>><>>>1111,1,>::>1>1>1,3$  <111:<>111,>1112241,22,2,,>13$ ",
" <>11>>:>11,,>,111,,>111,1,1,3$  <1:::::>,,,2,,2222211,,,,,,,3$ ",
" <:>11>1,1,>,,11>11,>1,,,11,,3$  <>::>111112,2,,2,,,>>,,,22,13$ ",
" <11>1:11,2,,,,>1>11111,,42113$  <>>>>>1,,11,222,,1,11>2111>:3$ ",
" <11:1,1,1,1,11,,>>122222,,,,3$  <::>:5111,112,,,11:1,>>11,1:3$ ",
" 33366666666666666666666666333$  33366666666666666666666666333$ ",
" +$$$$$$$$$$$$$$$$$$$$$$$$$$$$$  +$$$$$$$$$$$$$$$$$$$$$$$$$$$$$ ",
" ==============================  ============================== ",
",,,,,,,,,,>:::+  :::>,,,,,,,,,,,,,,,,,,,,,>:::+  :::>,,,,,,,,,,,",
"1,,2,2,2442243$  <,2422,2,11,>,111>,:5:5<>1,13$  <1:1,11:::>1,1,",
"22,,2242244223$  <,,22,,1222,>1>:1>>>:::5::,13$  <,1>1,>1>1>1,,2",
",,2,2,24424,13$  <,,,,,,11,,111::::11>::<<,>,3$  <,>>>>>>1111,,2",
"22,,,222224213$  <,>,22,,,>>::<:::::1:>>1:>113$  <>>:1>,1,11,,,,",
",21,,11,2,2,13$  <,,1,,,,1>>:1:::>:>>1>::>>113$  <>1,,11,22,2,,2",
"12,>:11,,,,,13$  <111,,1::::<:<:>1:>>,,111>:13$  <1,112,,221,,,1",
",11,>11>>111,3$  <,,,>1,2:11::>::>11111>>11>13$  <,2224,244,222,",
"66666666666333$  33366666666666666666666666333$  333666666666666",
"$$$$$$$$$$$$$$$  +$$$$$$$$$$$$$$$$$$$$$$$$$$$$$  +$$$$$$$$$$$$$$",
"===============  ==============================  ===============",
" :::>,,,,,,,,,,,,,,,,,,,,,>:::+  :::>,,,,,,,,,,,,,,,,,,,,,>:::+ ",
" <:::>1,1,,,11,1,2,2,,2,,1,>,3$  <,,,,2,22,,211,,222,2,1,1>1>3$ ",
" <:1:<11,111:>>1,22,,222,11113$  <,>,,22,22,,,,>,,2,11,11,1113$ ",
" <111:>111,,:::111,,,11,24,:>3$  <1224244,2,1,11>,,,1,,,>1>>>3$ ",
" <1>::5:1111,:>:1,,,1,,,,,,::3$  <12,22,,221>,,1<:1:211111:::3$ ",
" <>>>>:<>1,,1111112,2,1,22,>:3$  <,122,22111::1>1:>111,11>>::3$ ",
" <1:<::5:11,,1,1,1>,,111112>>3$  <,122,,1,11><>1>::>:>1111,,>3$ ",
" <>>::::5:11,,2,,1,,1,1>1,11:3$  <11,,2,11111::11>1>1>11,11,13$ ",
" 33366666666666666666666666333$  33366666666666666666666666333$ ",
" +$$$$$$$$$$$$$$$$$$$$$$$$$$$$$  +$$$$$$$$$$$$$$$$$$$$$$$$$$$$$ ",
" ==============================  ============================== ",
",,,,,,,,,,>:::+  :::>,,,,,,,,,,,,,,,,,,,,,>:::+  :::>,,,,,,,,,,,",
"1>:>11:::::>:3$  <11>>1,1,1::11>>>,,1,2,1>1113$  <,1,,2,,422,24,",
">>:::>:::,>:>3$  <1,11111>1>:>11111,,,1>:::>>3$  <11,2422212,,,2",
",>>:1:11>1,1:3$  <,1,1,,21>>:::1,>,1,,,,1:>:>3$  <1,1447,22,,1,,",
",>,1:>1>1>,1>3$  <,1,12,,,>>::<,,,111,,12,><>3$  <,,,4444,,,,1,1",
"111::>>11>11,3$  <,2,1,11111:>::>>1>11,1111>:3$  <222,447,1,,11,",
"1,1>::>>,11,43$  <2,11>1,11:::5<<1>1>,221,11:3$  <,,2,,2242111,1",
">>,,,21122,,,3$  <1,,111>11>:>>:::<111,22,,,,3$  <,>1,12422,1,1,",
"66666666666333$  33366666666666666666666666333$  333666666666666",
"$$$$$$$$$$$$$$$  +$$$$$$$$$$$$$$$$$$$$$$$$$$$$$  +$$$$$$$$$$$$$$",
"===============  ==============================  ===============",
" OooX.....................XooO+  OooX.....................XooO+ ",
" %@@.@..*...*.@@...@oOXo@@@..#$  %.@.X@@@***.*.@@..@@@Xo@..@*#$ ",
" %@@@.X**88*@X@@@.@.@oX@@.@*.#$  %o@XXX@@@*.*...@.X@@@XXXX@.*#$ ",
" %XoX.@*****@.XoX@X@.Xo...@*.#$  %O@@X@X@X.@..@@@XoXXX@X.@@.@#$ ",
" %O%XO*.**8*@XoXo@@@@.X@..**@#$  %@@XXoooo@@..@XX%@o@.@@..@..#$ ",
" %XOX@@..**8.@X%OXX.@.@@....@#$  %OX@XOooooo.@.@XOXXo...**@Xo#$ ",
" %XoOX@@..@.@@@XoXX.@..@@.@..#$  %XOoOX%oXOo@X..@@o@X@*..@..o#$ ",
" &&&;-==+++++++++++++====-;&&&$  &&&;-===++++++++++++====-;&&&$ ",
" +$$$$$$$$$$$$$$$$$$$$$$$$$$$$$  +$$$$$$$$$$$$$$$$$$$$$$$$$$$$$ "
};
