/* XPM */
static char *b81cef617cc34cc2f38b510ad2e580a6qGdTZGRgySWCuPLn[] = {
/* columns rows colors chars-per-pixel */
"64 64 256 2 ",
"   c black",
".  c #010101",
"X  c #020202",
"o  c gray1",
"O  c #040404",
"+  c gray2",
"@  c #060606",
"#  c #070707",
"$  c gray3",
"%  c #090909",
"&  c gray4",
"*  c #0B0B0B",
"=  c #0C0C0C",
"-  c gray5",
";  c #0E0E0E",
":  c gray6",
">  c #101010",
",  c #111111",
"<  c gray7",
"1  c #131313",
"2  c gray8",
"3  c #151515",
"4  c #161616",
"5  c gray9",
"6  c #181818",
"7  c #191919",
"8  c gray10",
"9  c #1B1B1B",
"0  c gray11",
"q  c #1D1D1D",
"w  c #1E1E1E",
"e  c gray12",
"r  c #202020",
"t  c gray13",
"y  c #222222",
"u  c #232323",
"i  c gray14",
"p  c #252525",
"a  c gray15",
"s  c #272727",
"d  c #282828",
"f  c gray16",
"g  c #2A2A2A",
"h  c gray17",
"j  c #2C2C2C",
"k  c #2D2D2D",
"l  c gray18",
"z  c #2F2F2F",
"x  c gray19",
"c  c #313131",
"v  c #323232",
"b  c gray20",
"n  c #343434",
"m  c #353535",
"M  c gray21",
"N  c #373737",
"B  c gray22",
"V  c #393939",
"C  c #3A3A3A",
"Z  c gray23",
"A  c #3C3C3C",
"S  c gray24",
"D  c #3E3E3E",
"F  c #3F3F3F",
"G  c gray25",
"H  c #414141",
"J  c gray26",
"K  c #434343",
"L  c #444444",
"P  c gray27",
"I  c #464646",
"U  c gray28",
"Y  c #484848",
"T  c #494949",
"R  c gray29",
"E  c #4B4B4B",
"W  c #4C4C4C",
"Q  c gray30",
"!  c #4E4E4E",
"~  c gray31",
"^  c #505050",
"/  c #515151",
"(  c gray32",
")  c #535353",
"_  c gray33",
"`  c #555555",
"'  c #565656",
"]  c gray34",
"[  c #585858",
"{  c gray35",
"}  c #5A5A5A",
"|  c #5B5B5B",
" . c gray36",
".. c #5D5D5D",
"X. c gray37",
"o. c #5F5F5F",
"O. c #606060",
"+. c gray38",
"@. c #626262",
"#. c gray39",
"$. c #646464",
"%. c #656565",
"&. c gray40",
"*. c #676767",
"=. c #686868",
"-. c DimGray",
";. c #6A6A6A",
":. c gray42",
">. c #6C6C6C",
",. c #6D6D6D",
"<. c gray43",
"1. c #6F6F6F",
"2. c gray44",
"3. c #717171",
"4. c #727272",
"5. c gray45",
"6. c #747474",
"7. c gray46",
"8. c #767676",
"9. c #777777",
"0. c gray47",
"q. c #797979",
"w. c gray48",
"e. c #7B7B7B",
"r. c #7C7C7C",
"t. c gray49",
"y. c #7E7E7E",
"u. c gray50",
"i. c #808080",
"p. c #818181",
"a. c gray51",
"s. c #838383",
"d. c #848484",
"f. c gray52",
"g. c #868686",
"h. c gray53",
"j. c #888888",
"k. c #898989",
"l. c gray54",
"z. c #8B8B8B",
"x. c gray55",
"c. c #8D8D8D",
"v. c #8E8E8E",
"b. c gray56",
"n. c #909090",
"m. c gray57",
"M. c #929292",
"N. c #939393",
"B. c gray58",
"V. c #959595",
"C. c gray59",
"Z. c #979797",
"A. c #989898",
"S. c gray60",
"D. c #9A9A9A",
"F. c #9B9B9B",
"G. c gray61",
"H. c #9D9D9D",
"J. c gray62",
"K. c #9F9F9F",
"L. c #A0A0A0",
"P. c gray63",
"I. c #A2A2A2",
"U. c gray64",
"Y. c #A4A4A4",
"T. c #A5A5A5",
"R. c gray65",
"E. c #A7A7A7",
"W. c gray66",
"Q. c #A9A9A9",
"!. c #AAAAAA",
"~. c gray67",
"^. c #ACACAC",
"/. c gray68",
"(. c #AEAEAE",
"). c #AFAFAF",
"_. c gray69",
"`. c #B1B1B1",
"'. c #B2B2B2",
"]. c gray70",
"[. c #B4B4B4",
"{. c gray71",
"}. c #B6B6B6",
"|. c #B7B7B7",
" X c gray72",
".X c #B9B9B9",
"XX c gray73",
"oX c #BBBBBB",
"OX c #BCBCBC",
"+X c gray74",
"@X c gray",
"#X c gray75",
"$X c #C0C0C0",
"%X c #C1C1C1",
"&X c gray76",
"*X c #C3C3C3",
"=X c gray77",
"-X c #C5C5C5",
";X c #C6C6C6",
":X c gray78",
">X c #C8C8C8",
",X c gray79",
"<X c #CACACA",
"1X c #CBCBCB",
"2X c gray80",
"3X c #CDCDCD",
"4X c #CECECE",
"5X c gray81",
"6X c #D0D0D0",
"7X c gray82",
"8X c #D2D2D2",
"9X c LightGray",
"0X c gray83",
"qX c #D5D5D5",
"wX c gray84",
"eX c #D7D7D7",
"rX c #D8D8D8",
"tX c gray85",
"yX c #DADADA",
"uX c gray86",
"iX c gainsboro",
"pX c #DDDDDD",
"aX c gray87",
"sX c #DFDFDF",
"dX c gray88",
"fX c #E1E1E1",
"gX c #E2E2E2",
"hX c gray89",
"jX c #E4E4E4",
"kX c gray90",
"lX c #E6E6E6",
"zX c #E7E7E7",
"xX c gray91",
"cX c #E9E9E9",
"vX c #EAEAEA",
"bX c gray92",
"nX c #ECECEC",
"mX c gray93",
"MX c #EEEEEE",
"NX c #EFEFEF",
"BX c gray94",
"VX c #F1F1F1",
"CX c gray95",
"ZX c #F3F3F3",
"AX c #F4F4F4",
"SX c gray96",
"DX c #F6F6F6",
"FX c gray97",
"GX c #F8F8F8",
"HX c #F9F9F9",
"JX c gray98",
"KX c #FBFBFB",
"LX c gray99",
"PX c #FDFDFD",
"IX c #FEFEFE",
"UX c white",
/* pixels */
"0 0 0 0 0 0 0 0 0 0 0 0 0 0 0 0 0 0 0 0 0 0 0 0 0 0 0 0 0 0 0 0 0 0 0 0 0 0 0 0 0 0 0 0 0 0 0 0 0 0 0 0 0 0 0 0 0 0 0 0 0 0 0 0 ",
"_ _ _ _ _ _ _ _ _ _ G B B x   0 0 x B B G _ _ _ _ _ _ _ _ _ _ _ _ _ _ _ _ _ _ _ _ _ G B B x   0 0 x B B G _ _ _ _ _ _ _ _ _ _ _ ",
"Y G 2._  . ._  .G B G _ _ j   0 0 r  ._ _ G B _  ._ _ B x B Y _ _  . . .Y Y x Y G G G B r j   0 0 r Y G B j B j r j x B Y _ x Y ",
"Y G _ _  ._ _ _ j j B _ Y j   0 0 r 2.Y Y B Y Y  .Y _ x j j Y B _ _ _ G B Y B G B G G x 0 j   0 0 r B j 0 r r 0 r j x B B G 0 Y ",
"G Y _ Y  ._ Y x x B G Y Y j   0 0 r  .Y _ G Y G _ G G B x j x Y _ Y G G Y _ G B j Y B r 0 j   0 0 r x j j j r 0 r j x x B G x G ",
"G Y _ _ _ _ G G x G B G B j   0 0 r _ Y _  .Y _ B Y G G B x G Y _ Y G Y Y Y G x j Y B j r j   0 0 r x j j x 0 0 0 j j j _ x x x ",
"G _ Y _ Y G B G B G x G B j   0 0 r _ _  . . .Y _ B _ j B B B Y  .B G Y Y Y _ B B Y j j j j   0 0 r 0 j r 0 0 r 0 j r x _ j x x ",
"_ Y Y Y _ Y x G B G B B B j   0 0 r Y _ _  . . .Y B _ j B B x G _ x Y G Y B Y Y G B B j x j   0 0 r 0 j 0 0 x j 0 r r B B B r x ",
"_ Y G G Y G G _ B j G G B j   0 0 r Y Y  . . . .B x G r Y B B Y _ B B Y B x Y _ B G G j B j   0 0 r 0 j 0 B j j 0 0 x Y B x j x ",
"Y G  .G  .B Y _ j j B G j j   0 0 r Y  ._  ._ _ G j B B G Y x Y G j B Y B Y Y Y Y Y B r x j   0 0 r r 0 0 j r r r r B _ B B j j ",
"Y Y G G Y G Y Y r x j B j j   0 0 r G _ _ _  ._ B x B G G G G Y B j x Y G G G Y Y Y B j B j   0 0 r 0 0 0 0 j j r r G _ j B r Y ",
"Y Y j _ Y Y G B j x j B r j   0 0 r Y  ._ Y _ _ x B Y B B G G B x r x Y B B G _ Y Y B j r j   0 0 r 0 r r 0 j r 0 B G _ x G B B ",
"B G G _ Y G Y B x x j G j j   0 0 r Y _  .Y  .G G G B B B G Y B j 0 G Y G Y _ Y Y Y B x B j   0 0 r 0 j r 0 r j 0 G Y x Y B G x ",
"0 0 0 0 0 0 0 0 0 0 0 0 0 0   0 0 0 0 0 0 0 0 0 0 0 0 0 0 0 0 0 0 0 0 0 0 0 0 0 0 0 0 0 0 0   0 0 0 0 0 0 0 0 0 0 0 0 0 0 0 0 0 ",
"                              0 0                                                             0 0                               ",
"0 0 0 0 0 0 0 0 0 0 0 0 0 0 0 0 0 0 0 0 0 0 0 0 0 0 0 0 0 0 0 0 0 0 0 0 0 0 0 0 0 0 0 0 0 0 0 0 0 0 0 0 0 0 0 0 0 0 0 0 0 0 0 0 ",
"0 0 0 0 0 0 0 0 0 0 0 0 0 0 0 0 0 0 0 0 0 0 0 0 0 0 0 0 0 0 0 0 0 0 0 0 0 0 0 0 0 0 0 0 0 0 0 0 0 0 0 0 0 0 0 0 0 0 0 0 0 0 0 0 ",
"0 x B B G _ _ _ _ _ _ _ _ _ _ _ _ _ _ _ _ _ _ _ _ _ G B B x   0 0 x B B G _ _ _ _ _ _ _ _ _ _ _ _ _ _ _ _ _ _ _ _ _ G B B x   0 ",
"0 r G _ Y Y _ G Y Y _ Y G G G G  .G Y _ Y B _ Y Y B B B j j   0 0 r Y _ _ _ Y x j x Y B G Y G r B x _ G _ Y Y Y Y r j r 0 j   0 ",
"0 r B Y Y Y Y G Y G _ x Y B _ G _ G _ G _ x _ G j B j r B j   0 0 r G 2._  .Y B r G B B G G j j Y x G B Y _  ._ B B j r r j   0 ",
"0 r Y Y _ _ Y Y Y Y Y B G G B B Y G _ _ Y G _ Y Y j r r x j   0 0 r G _ Y _ _ G r j B j G x j G _ B G G _  . .G Y B j j j j   0 ",
"0 r G _  ._ G _ Y G j Y G x G G _ _ 2._ _ _ _  .B r j j x j   0 0 r _ Y Y _  .G x B x B G B x B Y G x G _ _  .G Y Y x r B j   0 ",
"0 r Y _ _ Y  ._  .Y B Y G j G Y  . ._ Y B _ Y Y r j r G j j   0 0 r _ Y Y _ G B B x j Y B G G G _ Y x Y G Y Y Y G Y B r j j   0 ",
"0 r _  ._ Y  ._ Y B B B G Y G  . . . .Y _ _ Y Y B j j r x j   0 0 r _ Y Y  .G G B j x Y B Y Y B G Y x _ j B G Y G _ B j x j   0 ",
"0 r  . ._ Y  .G Y G G _ Y G Y 2. .2._ Y _ Y Y _ B x x x j j   0 0 r 2._ _  .Y B x j B B G Y Y x Y B B Y x B Y G Y  .Y G B j   0 ",
"0 r 2._ _ _ _ G _ G Y G G Y _  . . . .Y _ G Y B j G x 0 r j   0 0 r  . . ._ Y B j 0 j r G G Y Y _ x B G B B _ Y _ 2._ _ x j   0 ",
"0 r  .Y _ Y _ G Y _ Y Y Y _ Y _  ._ _ _ _ Y G G B B B r j j   0 0 r  . ._  .B G G x j 0 Y G x Y Y B j Y B Y Y B _  ._ _ G j   0 ",
"0 r Y Y Y Y Y Y Y Y _ _ Y _ _ Y _ _ _ Y _ Y G Y B G B j B j   0 0 r  . ._ _ G G _ G B j x x r Y Y _ j G B G Y Y  ._ Y _ G j   0 ",
"0 r Y Y _ G _ Y _ Y Y _ Y _ _ Y  ._ G Y 2.G _ Y G G G j j j   0 0 r _  ._ Y _ B _ Y B j x j j Y Y G G B j G _ Y _ _ Y Y B j   0 ",
"0 0 0 0 0 0 0 0 0 0 0 0 0 0 0 0 0 0 0 0 0 0 0 0 0 0 0 0 0 0   0 0 0 0 0 0 0 0 0 0 0 0 0 0 0 0 0 0 0 0 0 0 0 0 0 0 0 0 0 0 0   0 ",
"0                                                             0 0                                                             0 ",
"0 0 0 0 0 0 0 0 0 0 0 0 0 0 0 0 0 0 0 0 0 0 0 0 0 0 0 0 0 0 0 0 0 0 0 0 0 0 0 0 0 0 0 0 0 0 0 0 0 0 0 0 0 0 0 0 0 0 0 0 0 0 0 0 ",
"0 0 0 0 0 0 0 0 0 0 0 0 0 0 0 0 0 0 0 0 0 0 0 0 0 0 0 0 0 0 0 0 0 0 0 0 0 0 0 0 0 0 0 0 0 0 0 0 0 0 0 0 0 0 0 0 0 0 0 0 0 0 0 0 ",
"_ _ _ _ _ _ _ _ _ _ G B B x   0 0 x B B G _ _ _ _ _ _ _ _ _ _ _ _ _ _ _ _ _ _ _ _ _ G B B x   0 0 x B B G _ _ _ _ _ _ _ _ _ _ _ ",
" .G Y _ Y B _ Y Y B B B j j   0 0 r  ._ _ G B _  ._ _ B x B Y _ _  . . .Y Y x Y G G G B r j   0 0 r G _ Y Y _ G Y Y _ Y G G G G ",
"_ G _ G _ x _ G j B j r B j   0 0 r 2.Y Y B Y Y  .Y _ x j j Y B _ _ _ G B Y B G B G G x 0 j   0 0 r B Y Y Y Y G Y G _ x Y B _ G ",
"Y G _ _ Y G _ Y Y j r r x j   0 0 r  .Y _ G Y G _ G G B x j x Y _ Y G G Y _ G B j Y B r 0 j   0 0 r Y Y _ _ Y Y Y Y Y B G G B B ",
"_ _ 2._ _ _ _  .B r j j x j   0 0 r _ Y _  .Y _ B Y G G B x G Y _ Y G Y Y Y G x j Y B j r j   0 0 r G _  ._ G _ Y G j Y G x G G ",
" . ._ Y B _ Y Y r j r G j j   0 0 r _ _  . . .Y _ B _ j B B B Y  .B G Y Y Y _ B B Y j j j j   0 0 r Y _ _ Y  ._  .Y B Y G j G Y ",
" . . .Y _ _ Y Y B j j r x j   0 0 r Y _ _  . . .Y B _ j B B x G _ x Y G Y B Y Y G B B j x j   0 0 r _  ._ Y  ._ Y B B B G Y G  .",
" .2._ Y _ Y Y _ B x x x j j   0 0 r Y Y  . . . .B x G r Y B B Y _ B B Y B x Y _ B G G j B j   0 0 r  . ._ Y  .G Y G G _ Y G Y 2.",
" . . .Y _ G Y B j G x 0 r j   0 0 r Y  ._  ._ _ G j B B G Y x Y G j B Y B Y Y Y Y Y B r x j   0 0 r 2._ _ _ _ G _ G Y G G Y _  .",
" ._ _ _ _ Y G G B B B r j j   0 0 r G _ _ _  ._ B x B G G G G Y B j x Y G G G Y Y Y B j B j   0 0 r  .Y _ Y _ G Y _ Y Y Y _ Y _ ",
"_ _ _ Y _ Y G Y B G B j B j   0 0 r Y  ._ Y _ _ x B Y B B G G B x r x Y B B G _ Y Y B j r j   0 0 r Y Y Y Y Y Y Y Y _ _ Y _ _ Y ",
" ._ G Y 2.G _ Y G G G j j j   0 0 r Y _  .Y  .G G G B B B G Y B j 0 G Y G Y _ Y Y Y B x B j   0 0 r Y Y _ G _ Y _ Y Y _ Y _ _ Y ",
"0 0 0 0 0 0 0 0 0 0 0 0 0 0   0 0 0 0 0 0 0 0 0 0 0 0 0 0 0 0 0 0 0 0 0 0 0 0 0 0 0 0 0 0 0   0 0 0 0 0 0 0 0 0 0 0 0 0 0 0 0 0 ",
"                              0 0                                                             0 0                               ",
"0 0 0 0 0 0 0 0 0 0 0 0 0 0 0 0 0 0 0 0 0 0 0 0 0 0 0 0 0 0 0 0 0 0 0 0 0 0 0 0 0 0 0 0 0 0 0 0 0 0 0 0 0 0 0 0 0 0 0 0 0 0 0 0 ",
"0 0 0 0 0 0 0 0 0 0 0 0 0 0 0 0 0 0 0 0 0 0 0 0 0 0 0 0 0 0 0 0 0 0 0 0 0 0 0 0 0 0 0 0 0 0 0 0 0 0 0 0 0 0 0 0 0 0 0 0 0 0 0 0 ",
"0 x B B G _ _ _ _ _ _ _ _ _ _ _ _ _ _ _ _ _ _ _ _ _ G B B x   0 0 x B B G _ _ _ _ _ _ _ _ _ _ _ _ _ _ _ _ _ _ _ _ _ G B B x   0 ",
"0 r  ._ _ G B _  ._ _ B x B Y _ _  . . .Y Y x Y G G G B r j   0 0 r G _ Y Y _ G Y Y _ Y G G G G  .G Y _ Y B _ Y Y B B B j j   0 ",
"0 r 2.Y Y B Y Y  .Y _ x j j Y B _ _ _ G B Y B G B G G x 0 j   0 0 r B Y Y Y Y G Y G _ x Y B _ G _ G _ G _ x _ G j B j r B j   0 ",
"0 r  .Y _ G Y G _ G G B x j x Y _ Y G G Y _ G B j Y B r 0 j   0 0 r Y Y _ _ Y Y Y Y Y B G G B B Y G _ _ Y G _ Y Y j r r x j   0 ",
"0 r _ Y _  .Y _ B Y G G B x G Y _ Y G Y Y Y G x j Y B j r j   0 0 r G _  ._ G _ Y G j Y G x G G _ _ 2._ _ _ _  .B r j j x j   0 ",
"0 r _ _  . . .Y _ B _ j B B B Y  .B G Y Y Y _ B B Y j j j j   0 0 r Y _ _ Y  ._  .Y B Y G j G Y  . ._ Y B _ Y Y r j r G j j   0 ",
"0 r Y _ _  . . .Y B _ j B B x G _ x Y G Y B Y Y G B B j x j   0 0 r _  ._ Y  ._ Y B B B G Y G  . . . .Y _ _ Y Y B j j r x j   0 ",
"0 r Y Y  . . . .B x G r Y B B Y _ B B Y B x Y _ B G G j B j   0 0 r  . ._ Y  .G Y G G _ Y G Y 2. .2._ Y _ Y Y _ B x x x j j   0 ",
"0 r Y  ._  ._ _ G j B B G Y x Y G j B Y B Y Y Y Y Y B r x j   0 0 r 2._ _ _ _ G _ G Y G G Y _  . . . .Y _ G Y B j G x 0 r j   0 ",
"0 r G _ _ _  ._ B x B G G G G Y B j x Y G G G Y Y Y B j B j   0 0 r  .Y _ Y _ G Y _ Y Y Y _ Y _  ._ _ _ _ Y G G B B B r j j   0 ",
"0 r Y  ._ Y _ _ x B Y B B G G B x r x Y B B G _ Y Y B j r j   0 0 r Y Y Y Y Y Y Y Y _ _ Y _ _ Y _ _ _ Y _ Y G Y B G B j B j   0 ",
"0 r Y _  .Y  .G G G B B B G Y B j 0 G Y G Y _ Y Y Y B x B j   0 0 r Y Y _ G _ Y _ Y Y _ Y _ _ Y  ._ G Y 2.G _ Y G G G j j j   0 ",
"0 0 0 0 0 0 0 0 0 0 0 0 0 0 0 0 0 0 0 0 0 0 0 0 0 0 0 0 0 0   0 0 0 0 0 0 0 0 0 0 0 0 0 0 0 0 0 0 0 0 0 0 0 0 0 0 0 0 0 0 0   0 ",
"0                                                             0 0                                                             0 ",
"0 0 0 0 0 0 0 0 0 0 0 0 0 0 0 0 0 0 0 0 0 0 0 0 0 0 0 0 0 0 0 0 0 0 0 0 0 0 0 0 0 0 0 0 0 0 0 0 0 0 0 0 0 0 0 0 0 0 0 0 0 0 0 0 "
};
