/* XPM */
static char *_037387b29e54183bf3e20db920af64c4g8uyqi5idbhIfhc[] = {
/* columns rows colors chars-per-pixel */
"64 64 21 1 ",
"  c #282828",
". c #80502C",
"X c #5C4020",
"o c #543C1C",
"O c gray11",
"+ c #6C4824",
"@ c #302410",
"# c black",
"$ c #483818",
"% c #382C14",
"& c #9C6038",
"* c #28200C",
"= c #202020",
"- c #400000",
"; c #580000",
": c #640000",
"> c #7C0000",
", c #700000",
"< c #980000",
"1 c #A80000",
"2 c #A86840",
/* pixels */
"                                                                ",
"..........XoooO  oooX.....................XoooO  oooX...........",
"X++XoX+++X..+@#  $oXo+++.+X++X+X..+oXo+ooooo+@#  $++++o%oooooX+X",
"..X+XoX....+.@#  $$o+++..+XXoXX+.+.X+++XX+XoX@#  $..+ooooooXoo..",
"..ooXX+++.+++@#  $o+X++.++X+XX+X+.++XX+&X+oXo@#  $++.+XXo%X+++..",
"+.X++XX.....o@#  $+o++++++XooXoX+.+.&..+XXooo@#  $X+.oo++ooX++.&",
"+.++X++++.+.+@#  $..++XXo+++XooXoo++..+++oo%o@#  $+++..++.+..+.+",
"+X+X++...++++@#  $.+.XoXXo+oXX$XXoX+.++XoXo%o@#  $o+X+++.&.++...",
"***********@@@#  @@@***********************@@@#  @@@************",
"###############  O#############################  O##############",
"===============  ==============================  ===============",
" -;;:>>>>>>>>>>>>>>>>>>>>>:;;-O  -;;:>>>>>>>>>>>>>>>>>>>>>:;;-O ",
" -:,><,,,,--,:,:>>:,,:,,,;;:,-#  -,,:::,,,,::::,<<,,,<,>>>,:,-# ",
" -,,>,,:-,,:;;,,>,:,:,,::,,,:-#  ->:;;,:,:>>>,>,>>>,<>><<,>>>-# ",
" -,,,:::-:::,,,,>,>:;;:,:,:,>-#  -,,,--:,,,>:,,,<<1,><<><>>:,-# ",
" -:,,::;:,,>>:>,,,>>:,,,>,>,>-#  -,;-;;;:>>><>><<<<<,,>>>>>>>-# ",
" -;:,,:,>,>:>>,,:,,>:,>>>,,>>-#  -:;-:,,,,,<><>><>>>::>>><<>,-# ",
" -,,:,;,,><>>>>:,:,,,,,>>1<,,-#  -:::::,>>,,><<<>>,>,,:<,,,:;-# ",
" -,,;,>,>,>,>,,>>::,<<<<<>>>>-#  -;-:--,,,>,,<>>>,,;,>::,,>,;-# ",
" -----------------------------#  -----------------------------# ",
" O#############################  O############################# ",
" ==============================  ============================== ",
">>>>>>>>>>:;;-O  -;;:>>>>>>>>>>>>>>>>>>>>>:;;-O  -;;:>>>>>>>>>>>",
",>><><><11<<1-#  -><1<<><>,,>:>,,,:>;-;--:,>,-#  -,;,>,,;;;:,>,>",
"<<>><<1<<11<<-#  ->><<>>,<<<>:,:;,:::-;--;;>,-#  ->,:,>:,:,:,>><",
">><><><11<1>,-#  ->>>>>>,,>>,,,--;;,,:;;-->:>-#  ->::::::,,,,>><",
"<<>>><<<<<1<,-#  ->:><<>>>::;;-;;;;;,;::,-:,,-#  -::;,:>,>,,>>>>",
"><,>>,,><><>,-#  ->>,>>>>,::-,;;;:;::,:;;::,,-#  -:,>>,,><<><>><",
",<>:;,,>>>>>,-#  -,,,>>,;;;;-;-;:,;::>>,,,:;,-#  -,>,,<>><<,>>>,",
">,,>:,,::,,,>-#  ->>>:,><;,,;;:;;:,,,,,::,,:,-#  -><<<1><11><<<>",
"--------------#  -----------------------------#  ---------------",
"###############  O#############################  O##############",
"===============  ==============================  ===============",
" -;;:>>>>>>>>>>>>>>>>>>>>>:;;-O  -;;:>>>>>>>>>>>>>>>>>>>>>:;;-O ",
" -;;-:,>,>>>,,>,><><>><>>,>:>-#  ->>>><><<>><,,>><<<><>,>,:,:-# ",
" -;,;-,,>,,,;::,><<>><<<>,,,,-#  ->:>><<><<>>>>:>><>,,>,,>,,,-# ",
" -,,,-:,,,>>;-;,,,>>>,,><1>;:-#  -,<<1<11><>,>,,:>>>,>>>:,:::-# ",
" -,:;;--,,,,>;:;,>>>,>>>>>>;;-#  -,<><<>><<,:>>,-;,;<,,,,,;;;-# ",
" -::::;-:,>>,,,,,,<><>,><<>:;-#  ->,<<><<,,,;;,:,;:,,,>,,::;--# ",
" -,;-;;--,,>>,>,>,:>>,,,,,<::-#  ->,<<>>,>,,:-:,:;;:;:,,,,>>:-# ",
" -::;;;---,,>><>>,>>,>,:,>,,;-#  -,,>><>,,,,,--,,:,:,:,,>,,>,-# ",
" -----------------------------#  -----------------------------# ",
" O#############################  O############################# ",
" ==============================  ============================== ",
">>>>>>>>>>:;;-O  -;;:>>>>>>>>>>>>>>>>>>>>>:;;-O  -;;:>>>>>>>>>>>",
",:;:,,;-;;-:;-#  -,,::,>,>,;;,,:::>>,><>,:,,,-#  ->,>><>>1<<><1>",
"::;;;:;;;>:;:-#  -,>,,,,,:,:;:,,,,,>>>,:--;::-#  -,,><1<<<,<>>><",
">::-,;,,:,>,;-#  ->,>,>><,::--;,>:>,>>>>,;:-:-#  -,>,111><<>>,>>",
">:>,;:,:,:>,:-#  ->,>,<>>>::-;->>>,,,>>,<>:-:-#  ->>>1111>>>>,>,",
",,,;;::,,:,,>-#  -><>,>,,,,,;:;;::,:,,>,,,,:;-#  -<<<>111>,>>,,>",
",>,:;-::>,,>1-#  -<>,,:,>,,;;;---,:,:><<,>,,;-#  ->><>><<1<,,,>,",
"::>>><,,<<>>>-#  -,>>,,,:,,:;::;;;-,,,><<>>>>-#  ->:,>,<1<<>,>,>",
"--------------#  -----------------------------#  ---------------",
"###############  O#############################  O##############",
"===============  ==============================  ===============",
" oooX.....................XoooO  oooX.....................XoooO ",
" $++.+..&...&.++...+ooXo+++..@#  $.+.X+++&&&.&.++..+++Xo+..+&@# ",
" $+++.X&&22&+X+++.+.+oX++.+&.@#  $o+XXX+++&.&...+.X+++XXXX+.&@# ",
" $XoX.+&&&&&+.XoX+X+.Xo...+&.@#  $o++X+X+X.+..+++XoXXX+X.++.+@# ",
" $o$Xo&.&&2&+XoXo++++.X+..&&+@#  $++XXoooo++..+XX$+o+.++..+..@# ",
" $XoX++..&&2.+X$oXX.+.++....+@#  $oX+Xoooooo.+.+XoXXo...&&+Xo@# ",
" $XooX++..+.+++XoXX.+..++.+..@#  $XoooX$oXoo+X..++o+X+&..+..o@# ",
" @@@***********************@@@#  @@@***********************@@@# ",
" O#############################  O############################# "
};
