/* XPM */
static char *ee8559598599419db011a1940892cf22Z8FDMAe0lc1rSXMC[] = {
/* columns rows colors chars-per-pixel */
"64 64 15 1 ",
"  c #282828",
". c #80502C",
"X c #5C4020",
"o c #543C1C",
"O c gray11",
"+ c #6C4824",
"@ c #302410",
"# c black",
"$ c #483818",
"% c #382C14",
"& c #9C6038",
"* c #28200C",
"= c #202020",
"- c #A86840",
"; c #B47044",
/* pixels */
"                                                                ",
"..........XoooO  oooX.....................XoooO  oooX...........",
"X++XoX+++X..+@#  $oXo+++.+X++X+X..+oXo+ooooo+@#  $++++o%oooooX+X",
"..X+XoX....+.@#  $$o+++..+XXoXX+.+.X+++XX+XoX@#  $..+ooooooXoo..",
"..ooXX+++.+++@#  $o+X++.++X+XX+X+.++XX+&X+oXo@#  $++.+XXo%X+++..",
"+.X++XX.....o@#  $+o++++++XooXoX+.+.&..+XXooo@#  $X+.oo++ooX++.&",
"+.++X++++.+.+@#  $..++XXo+++XooXoo++..+++oo%o@#  $+++..++.+..+.+",
"+X+X++...++++@#  $.+.XoXXo+oXX$XXoX+.++XoXo%o@#  $o+X+++.&.++...",
"***********@@@#  @@@***********************@@@#  @@@************",
"###############  O#############################  O##############",
"===============  ==============================  ===============",
" oooX.....................XoooO  oooX.....................XoooO ",
" $X+.&++++o$+X+X..X++X+++ooX+@#  $++XXX++++XXXX+&&+++&+...+X+@# ",
" $++.++Xo++Xoo++.+X+X++XX+++X@#  $.Xoo+X+X...+.+...+&..&&+...@# ",
" $+++XXX$XXX++++.+.XooX+X+X+.@#  $+++o$X+++.X+++&&-+.&&.&..X+@# ",
" $X++XXoX++..X.+++..X+++.+.+.@#  $+oooooX...&..&&&&&++.......@# ",
" $oX++X+.+.X..++X++.X+...++..@#  $XooX+++++&.&..&...XX...&&.+@# ",
" $++X+o++.&....X+X+++++..-&++@#  $XXXXX+..++.&&&..+.++X&+++Xo@# ",
" $++o+.+.+.+.++..XX+&&&&&....@#  $ooXo%+++.++&...++o+.XX++.+o@# ",
" @@@***********************@@@#  @@@***********************@@@# ",
" O#############################  O############################# ",
" ==============================  ============================== ",
"..........XoooO  oooX.....................XoooO  oooX...........",
"+..&.&.&--&&-@#  $.&-&&.&.++.X.+++X.o%o%$X+.+@#  $+o+.++oooX+.+.",
"&&..&&-&&--&&@#  $..&&..+&&&.X+Xo+XXXooo%oo.+@#  $.+X+.X+X+X+..&",
"..&.&.&--&-.+@#  $......++..+++oooo++Xoo$$.X.@#  $.XXXXXX++++..&",
"&&...&&&&&-&+@#  $.X.&&...XXoo$ooooo+oXX+oX++@#  $XXo+X.+.++....",
".&+..++.&.&.+@#  $..+....+XXo+oooXoXX+XooXX++@#  $X+..++.&&.&..&",
"+&.Xo++.....+@#  $+++..+oooo$o$oX+oXX..+++Xo+@#  $+.++&..&&+...+",
".++.X++XX+++.@#  $...X+.&o++ooXooX+++++XX++X+@#  $.&&&-.&--.&&&.",
"***********@@@#  @@@***********************@@@#  @@@************",
"###############  O#############################  O##############",
"===============  ==============================  ===============",
" oooX.....................XoooO  oooX.....................XoooO ",
" $oooX+.+...++.+.&.&..&..+.X.@#  $....&.&&..&++..&&&.&.+.+X+X@# ",
" $o+o$++.+++oXX+.&&..&&&.++++@#  $.X..&&.&&....X..&.++.++.+++@# ",
" $+++oX+++..ooo+++...++.&-.oX@#  $+&&-&--.&.+.++X...+...X+XXX@# ",
" $+Xoo%o++++.oXo+...+......oo@#  $+&.&&..&&+X..+$o+o&+++++ooo@# ",
" $XXXXo$X+..++++++&.&.+.&&.Xo@#  $.+&&.&&+++oo+X+oX+++.++XXoo@# ",
" $+o$oo%o++..+.+.+X..+++++&XX@#  $.+&&..+.++X$X+XooXoX++++..X@# ",
" $XXoooo%o++..&..+..+.+X+.++o@#  $++..&.+++++oo++X+X+X++.++.+@# ",
" @@@***********************@@@#  @@@***********************@@@# ",
" O#############################  O############################# ",
" ==============================  ============================== ",
"..........XoooO  oooX.....................XoooO  oooX...........",
"+XoX++oooooXo@#  $++XX+.+.+oo++XXX..+.&.+X+++@#  $.+..&..-&&.&-.",
"XXoooXooo.XoX@#  $+.+++++X+XoX+++++...+XoooXX@#  $++.&-&&&+&...&",
".XXo+o++X+.+o@#  $.+.+..&+XXooo+.X.+....+oXoX@#  $+.+--;.&&..+..",
".X.+oX+X+X.+X@#  $.+.+&...XXoo$...+++..+&.X$X@#  $...----....+.+",
"+++ooXX++X++.@#  $.&.+.+++++oXooXX+X++.++++Xo@#  $&&&.--;.+..++.",
"+.+XooXX.++.-@#  $&.++X+.++ooo%$$+X+X.&&+.++o@#  $..&..&&-&+++.+",
"XX...&++&&...@#  $+..+++X++XoXXooo$+++.&&....@#  $.X+.+&-&&.+.+.",
"***********@@@#  @@@***********************@@@#  @@@************",
"###############  O#############################  O##############",
"===============  ==============================  ===============",
" oooX.....................XoooO  oooX.....................XoooO ",
" $++.+..&...&.++...+ooXo+++..@#  $.+.X+++&&&.&.++..+++Xo+..+&@# ",
" $+++.X&&--&+X+++.+.+oX++.+&.@#  $o+XXX+++&.&...+.X+++XXXX+.&@# ",
" $XoX.+&&&&&+.XoX+X+.Xo...+&.@#  $o++X+X+X.+..+++XoXXX+X.++.+@# ",
" $o$Xo&.&&-&+XoXo++++.X+..&&+@#  $++XXoooo++..+XX$+o+.++..+..@# ",
" $XoX++..&&-.+X$oXX.+.++....+@#  $oX+Xoooooo.+.+XoXXo...&&+Xo@# ",
" $XooX++..+.+++XoXX.+..++.+..@#  $XoooX$oXoo+X..++o+X+&..+..o@# ",
" @@@***********************@@@#  @@@***********************@@@# ",
" O#############################  O############################# "
};
